<svg id="wave" style="transform:rotate(180deg); transition: 0.3s" viewBox="0 0 1440 490" version="1.1" xmlns="http://www.w3.org/2000/svg"><defs><linearGradient id="sw-gradient-0" x1="0" x2="0" y1="1" y2="0"><stop stop-color="rgba(255, 154, 0, 1)" offset="0%"></stop><stop stop-color="rgba(254, 106, 0, 1)" offset="100%"></stop></linearGradient></defs><path style="transform:translate(0, 0px); opacity:1" fill="url(#sw-gradient-0)" d="M0,343L60,334.8C120,327,240,310,360,277.7C480,245,600,196,720,171.5C840,147,960,147,1080,179.7C1200,212,1320,278,1440,318.5C1560,359,1680,376,1800,351.2C1920,327,2040,261,2160,204.2C2280,147,2400,98,2520,89.8C2640,82,2760,114,2880,171.5C3000,229,3120,310,3240,302.2C3360,294,3480,196,3600,204.2C3720,212,3840,327,3960,367.5C4080,408,4200,376,4320,334.8C4440,294,4560,245,4680,187.8C4800,131,4920,65,5040,98C5160,131,5280,261,5400,294C5520,327,5640,261,5760,228.7C5880,196,6000,196,6120,236.8C6240,278,6360,359,6480,392C6600,425,6720,408,6840,367.5C6960,327,7080,261,7200,220.5C7320,180,7440,163,7560,155.2C7680,147,7800,147,7920,130.7C8040,114,8160,82,8280,130.7C8400,180,8520,310,8580,375.7L8640,441L8640,490L8580,490C8520,490,8400,490,8280,490C8160,490,8040,490,7920,490C7800,490,7680,490,7560,490C7440,490,7320,490,7200,490C7080,490,6960,490,6840,490C6720,490,6600,490,6480,490C6360,490,6240,490,6120,490C6000,490,5880,490,5760,490C5640,490,5520,490,5400,490C5280,490,5160,490,5040,490C4920,490,4800,490,4680,490C4560,490,4440,490,4320,490C4200,490,4080,490,3960,490C3840,490,3720,490,3600,490C3480,490,3360,490,3240,490C3120,490,3000,490,2880,490C2760,490,2640,490,2520,490C2400,490,2280,490,2160,490C2040,490,1920,490,1800,490C1680,490,1560,490,1440,490C1320,490,1200,490,1080,490C960,490,840,490,720,490C600,490,480,490,360,490C240,490,120,490,60,490L0,490Z"></path></svg>